<?xml version="1.0" encoding="UTF-8"?>
<svg viewBox="0 0 800 600" xmlns="http://www.w3.org/2000/svg">
  <!-- Styles -->
  <defs>
    <marker id="arrowhead" markerWidth="10" markerHeight="7" refX="9" refY="3.5" orient="auto">
      <polygon points="0 0, 10 3.5, 0 7" fill="#333" />
    </marker>
  </defs>
  
  <!-- Fully specified modules -->
  <rect x="300" y="50" width="200" height="60" rx="10" ry="10" fill="#f9f" stroke="#333" stroke-width="2" />
  <text x="400" y="85" text-anchor="middle" font-family="Arial" font-size="14">Monetary Determination Module</text>
  
  <rect x="300" y="250" width="200" height="60" rx="10" ry="10" fill="#f9f" stroke="#333" stroke-width="2" />
  <text x="400" y="285" text-anchor="middle" font-family="Arial" font-size="14">Weekly Certification Module</text>
  
  <rect x="300" y="450" width="200" height="60" rx="10" ry="10" fill="#f9f" stroke="#333" stroke-width="2" />
  <text x="400" y="485" text-anchor="middle" font-family="Arial" font-size="14">Federal Reporting Module</text>
  
  <!-- Placeholder modules - left side -->
  <rect x="50" y="150" width="170" height="50" rx="8" ry="8" fill="#ddd" stroke="#999" stroke-width="1" stroke-dasharray="5,5" />
  <text x="135" y="180" text-anchor="middle" font-family="Arial" font-size="14">Initial Claim Module</text>
  
  <rect x="50" y="230" width="170" height="50" rx="8" ry="8" fill="#ddd" stroke="#999" stroke-width="1" stroke-dasharray="5,5" />
  <text x="135" y="260" text-anchor="middle" font-family="Arial" font-size="14">Non-Monetary Module</text>
  
  <rect x="50" y="310" width="170" height="50" rx="8" ry="8" fill="#ddd" stroke="#999" stroke-width="1" stroke-dasharray="5,5" />
  <text x="135" y="340" text-anchor="middle" font-family="Arial" font-size="14">Work Search Module</text>
  
  <rect x="50" y="390" width="170" height="50" rx="8" ry="8" fill="#ddd" stroke="#999" stroke-width="1" stroke-dasharray="5,5" />
  <text x="135" y="420" text-anchor="middle" font-family="Arial" font-size="14">Wage Reporting Module</text>
  
  <!-- Placeholder modules - right side -->
  <rect x="580" y="150" width="170" height="50" rx="8" ry="8" fill="#ddd" stroke="#999" stroke-width="1" stroke-dasharray="5,5" />
  <text x="665" y="180" text-anchor="middle" font-family="Arial" font-size="14">Payments Module</text>
  
  <rect x="580" y="230" width="170" height="50" rx="8" ry="8" fill="#ddd" stroke="#999" stroke-width="1" stroke-dasharray="5,5" />
  <text x="665" y="260" text-anchor="middle" font-family="Arial" font-size="14">Correspondence Module</text>
  
  <rect x="580" y="310" width="170" height="50" rx="8" ry="8" fill="#ddd" stroke="#999" stroke-width="1" stroke-dasharray="5,5" />
  <text x="665" y="340" text-anchor="middle" font-family="Arial" font-size="14">Appeals Module</text>
  
  <rect x="580" y="390" width="170" height="50" rx="8" ry="8" fill="#ddd" stroke="#999" stroke-width="1" stroke-dasharray="5,5" />
  <text x="665" y="420" text-anchor="middle" font-family="Arial" font-size="14">Tax Module</text>
  
  <!-- Connections -->
  <!-- Initial Claim to Monetary Det -->
  <path d="M220 160 C250 160, 270 80, 300 80" fill="none" stroke="#333" stroke-width="1.5" marker-end="url(#arrowhead)" />
  
  <!-- Wage Reporting to Monetary Det -->
  <path d="M220 400 C250 400, 270 100, 300 90" fill="none" stroke="#333" stroke-width="1.5" marker-end="url(#arrowhead)" />
  
  <!-- Monetary Det to Weekly Cert -->
  <path d="M400 110 L400 250" fill="none" stroke="#333" stroke-width="1.5" marker-end="url(#arrowhead)" />
  <text x="415" y="180" font-family="Arial" font-size="10">WBA, MBA, Benefit Year</text>
  
  <!-- Monetary Det to Federal Reporting -->
  <path d="M380 110 C380 300, 380 300, 380 450" fill="none" stroke="#333" stroke-width="1.5" marker-end="url(#arrowhead)" />
  <text x="340" y="350" font-family="Arial" font-size="10">Monetary determination data</text>
  
  <!-- Non-Monetary to Weekly Cert -->
  <path d="M220 250 L300 270" fill="none" stroke="#333" stroke-width="1.5" marker-end="url(#arrowhead)" />
  
  <!-- Work Search to Weekly Cert -->
  <path d="M220 320 L300 290" fill="none" stroke="#333" stroke-width="1.5" marker-end="url(#arrowhead)" />
  
  <!-- Weekly Cert to Non-Monetary -->
  <path d="M300 260 L220 240" fill="none" stroke="#333" stroke-width="1.5" marker-end="url(#arrowhead)" />
  
  <!-- Weekly Cert to Payments -->
  <path d="M500 270 L580 170" fill="none" stroke="#333" stroke-width="1.5" marker-end="url(#arrowhead)" />
  <text x="550" y="200" font-family="Arial" font-size="10">Payment instructions</text>
  
  <!-- Weekly Cert to Work Search -->
  <path d="M300 290 L220 330" fill="none" stroke="#333" stroke-width="1.5" marker-end="url(#arrowhead)" />
  
  <!-- Weekly Cert to Federal Reporting -->
  <path d="M420 310 C420 350, 420 400, 420 450" fill="none" stroke="#333" stroke-width="1.5" marker-end="url(#arrowhead)" />
  <text x="430" y="380" font-family="Arial" font-size="10">Certification data</text>
  
  <!-- Weekly Cert to Correspondence -->
  <path d="M500 250 L580 240" fill="none" stroke="#333" stroke-width="1.5" marker-end="url(#arrowhead)" />
  
  <!-- Weekly Cert to Appeals -->
  <path d="M500 290 L580 320" fill="none" stroke="#333" stroke-width="1.5" marker-end="url(#arrowhead)" />
  
  <!-- Payments to Federal Reporting -->
  <path d="M650 200 C650 350, 520 420, 500 460" fill="none" stroke="#333" stroke-width="1.5" marker-end="url(#arrowhead)" />
  
  <!-- Appeals to Federal Reporting -->
  <path d="M650 360 C650 400, 520 450, 500 470" fill="none" stroke="#333" stroke-width="1.5" marker-end="url(#arrowhead)" />
  
  <!-- Tax to Federal Reporting -->
  <path d="M650 440 C650 470, 520 480, 500 480" fill="none" stroke="#333" stroke-width="1.5" marker-end="url(#arrowhead)" />
  
  <!-- Legend -->
  <rect x="600" y="510" width="20" height="20" fill="#f9f" stroke="#333" stroke-width="2" />
  <text x="630" y="525" font-family="Arial" font-size="12">Fully Defined Module</text>
  
  <rect x="600" y="540" width="20" height="20" fill="#ddd" stroke="#999" stroke-width="1" stroke-dasharray="5,5" />
  <text x="630" y="555" font-family="Arial" font-size="12">Placeholder Module</text>
</svg>